<svg xmlns="http://www.w3.org/2000/svg" xmlns:xlink="http://www.w3.org/1999/xlink" viewBox="0 0 127.56 127.56"><defs><style>.cls-1{fill:none;}.cls-2{fill:#c8c8c8;}.cls-3,.cls-9{fill:#fafafa;}.cls-4{clip-path:url(#clip-path);}.cls-5,.cls-6{fill:#60a8a4;}.cls-6,.cls-9{opacity:0.3;}.cls-6,.cls-8,.cls-9{isolation:isolate;}.cls-7{fill:#a9dbd8;}.cls-8{fill:#e1e1e1;opacity:0.4;}</style><clipPath id="clip-path"><rect class="cls-1" width="127.56" height="127.56" rx="6.96"/></clipPath></defs><g id="Layer_2" data-name="Layer 2"><g id="Layer_1-2" data-name="Layer 1"><path class="cls-2" d="M63.78,0h0A63.79,63.79,0,0,0,0,63.78H0a63.79,63.79,0,0,0,63.78,63.78h0a63.79,63.79,0,0,0,63.78-63.78h0A63.79,63.79,0,0,0,63.78,0Z"/><path class="cls-3" d="M86.1,107.09l-12.26-4.72a3.49,3.49,0,0,1-2.23-3.25V82.51H53V99.12a3.48,3.48,0,0,1-2.23,3.25l-12.25,4.72A17.36,17.36,0,0,0,28.6,117a63.39,63.39,0,0,0,35.18,10.59h0a63.45,63.45,0,0,0,32.77-9.06A17.35,17.35,0,0,0,86.1,107.09Z"/><g class="cls-4"><path class="cls-5" d="M89.28,45.63c6,0,9,4.62,9.18,18.24.27,23.16-6,46.76,4.23,46.76,0,0-6.4,3.73-9.93-2.06,0,0,0,3.12,3.53,5.79,0,0-11.84.25-12.58-13.58C83,87.3,87.1,73.18,89.28,45.63Z"/><path class="cls-6" d="M88.6,74.27C93.69,72,96.54,66,95.86,62.13s-3.26-4-3.26-4a54.49,54.49,0,0,0,1.59-10.87,7.26,7.26,0,0,0-4.91-1.62c-1.17,14.71-2.88,25.59-4.11,34.59A30.34,30.34,0,0,0,88.6,74.27Z"/><path class="cls-7" d="M54.27,123.49a38.77,38.77,0,0,1,8-8.16,38.88,38.88,0,0,1,8,8.16c9.18-3.92,13.77-14.23,15-17.55L81,104.25c-2,2.39-8.78,9.64-18.68,9.64s-16.71-7.25-18.69-9.64l-4.4,1.69C40.5,109.26,45.09,119.57,54.27,123.49Z"/><path class="cls-8" d="M53,93.84a26.55,26.55,0,0,0,18.59,0V82.51H53Z"/><path class="cls-3" d="M37.54,73.37V62.13c-1.39-2.84-5-3.76-6.87-1.1C27.86,65,33.07,73.37,37.54,73.37Z"/><path class="cls-3" d="M87.1,73.37V62.13c1.39-2.84,5-3.76,6.86-1.1C96.77,65,91.56,73.37,87.1,73.37Z"/><path class="cls-8" d="M37.54,73.37V62.13c-1.39-2.84-5-3.76-6.87-1.1C27.86,65,33.07,73.37,37.54,73.37Z"/><path class="cls-8" d="M87.1,73.37V62.13c1.39-2.84,5-3.76,6.86-1.1C96.77,65,91.56,73.37,87.1,73.37Z"/><path class="cls-3" d="M62.32,92c9.11,0,18.07-5.14,21.89-10.4,3.59-5,3.85-8.4,5.68-31.49,1.52-19.08-9.35-28-27.57-28s-29.1,8.9-27.58,28c1.84,23.09,2.09,26.54,5.69,31.49C44.25,86.9,53.2,92,62.32,92Z"/><path class="cls-5" d="M93.45,36.06C90.87,21.94,80.66,14.73,62.32,14.73c-12.27,0-14.76,5-14.76,5-3.39-.95-13.79,2.19-16.37,16.31s4.53,26.07,4.53,26.07a68,68,0,0,0,1.39-19.71s.4-6.83,7.68-11.47c0,5.16,1.82,12.31,7.5,14.41a36.6,36.6,0,0,1-.27-9.3s4.07,9.57,18.8,9.57c0,0-4.64-5.23-4.64-9.71,0,0,6.1,9.71,21.18,9.71a64.8,64.8,0,0,0,1.55,16.5S96,50.18,93.45,36.06Z"/><path class="cls-9" d="M54.27,123.49a38.77,38.77,0,0,1,8-8.16,38.88,38.88,0,0,1,8,8.16c9.18-3.92,13.77-14.23,15-17.55L81,104.25c-2,2.39-8.78,9.64-18.68,9.64s-16.71-7.25-18.69-9.64l-4.4,1.69C40.5,109.26,45.09,119.57,54.27,123.49Z"/><path class="cls-6" d="M44.79,31l2.77-11.2s-1.56,1.52-2.5,5.3A11.84,11.84,0,0,0,44.79,31Z"/><path class="cls-9" d="M47.27,20.91s2.78-5,15-5c14.82,0,24.71,4.72,29.32,14-4.22-10-13.89-15.14-29.32-15.14-12.27,0-14.76,5-14.76,5-2.88-.8-10.79,1.34-14.7,10.61C37.06,22.07,44.52,20.14,47.27,20.91Z"/></g></g></g></svg>