<svg width="200" height="200" viewBox="0 0 200 200" fill="none" xmlns="http://www.w3.org/2000/svg">
<path d="M190.504 30.7022C190.389 29.0737 189.704 27.5378 188.568 26.3647C187.433 25.1916 185.92 24.4564 184.297 24.2884L173.152 23.2539L172.255 43.9229L180.228 44.6815C180.504 44.7048 180.774 44.783 181.02 44.9116C181.266 45.0401 181.484 45.2165 181.661 45.4303C181.839 45.6441 181.971 45.8911 182.052 46.1569C182.133 46.4226 182.16 46.7018 182.131 46.978L181.766 50.6884L170.676 166.454C170.613 167 170.338 167.499 169.909 167.843C169.48 168.186 168.933 168.347 168.386 168.288L166.869 168.15L166.352 180.213C166.216 183.291 165.042 186.232 163.021 188.557L168.448 189.068C169.351 189.164 170.264 189.081 171.135 188.823C172.006 188.566 172.817 188.138 173.522 187.566C174.227 186.994 174.812 186.288 175.243 185.488C175.674 184.689 175.943 183.813 176.035 182.909L176.786 175.144L176.793 174.937L188.635 51.5367L188.641 51.3298L190.517 31.8815C190.547 31.491 190.542 31.0918 190.504 30.7022Z" fill="#C9C9C9"/>
<path d="M168.014 25.9982C167.828 24.3758 167.077 22.8708 165.891 21.7481C164.705 20.6254 163.161 19.9569 161.531 19.8603L150.359 19.3086V39.9983L158.359 40.412C158.636 40.4235 158.907 40.4899 159.158 40.6075C159.409 40.725 159.635 40.8913 159.821 41.0967C160.007 41.3021 160.15 41.5424 160.243 41.8038C160.335 42.0651 160.374 42.3422 160.359 42.6189L160.152 46.3431L154.083 162.481C154.044 163.029 153.79 163.539 153.377 163.901C152.963 164.262 152.424 164.446 151.876 164.412L150.359 164.343V176.412C150.357 179.494 149.312 182.484 147.393 184.895L152.841 185.171C153.748 185.228 154.656 185.105 155.515 184.809C156.373 184.514 157.165 184.052 157.844 183.449C158.524 182.847 159.077 182.116 159.473 181.299C159.869 180.482 160.1 179.594 160.152 178.688L160.565 170.895V170.688L167.048 46.8948V46.6879L168.083 27.1707C168.094 26.7786 168.071 26.3863 168.014 25.9982Z" fill="#969393"/>
<path d="M33.6552 180.206L33.1311 168.15L31.6138 168.288C31.0674 168.347 30.5201 168.186 30.0912 167.843C29.6623 167.499 29.3866 167 29.3242 166.454L18.2345 50.6884L17.869 46.978C17.8405 46.7023 17.8671 46.4237 17.9474 46.1584C18.0276 45.893 18.1598 45.6463 18.3363 45.4326C18.5128 45.2189 18.7301 45.0424 18.9755 44.9134C19.2208 44.7845 19.4894 44.7056 19.7656 44.6815L27.7449 43.9229L26.8483 23.2539L15.7104 24.2884C14.0865 24.4564 12.5739 25.1916 11.4387 26.3647C10.3034 27.5378 9.61815 29.0737 9.50348 30.7022C9.46221 31.0916 9.45529 31.4839 9.48279 31.8746L11.3587 51.3298L11.3656 51.5367L23.2069 174.937L23.2138 175.144L23.9656 182.909C24.0568 183.813 24.3257 184.689 24.7569 185.488C25.1881 186.288 25.773 186.994 26.478 187.566C27.183 188.138 27.9942 188.566 28.865 188.823C29.7357 189.081 30.6488 189.164 31.5518 189.068L36.9793 188.557C34.958 186.232 33.7839 183.291 33.6483 180.213L33.6552 180.206Z" fill="#C9C9C9"/>
<path d="M49.6413 176.412V164.343L48.1241 164.412C47.5759 164.446 47.0365 164.262 46.6232 163.901C46.2099 163.539 45.9561 163.029 45.9172 162.481L39.8482 46.3431L39.6413 42.6189C39.6255 42.3422 39.6649 42.0651 39.7573 41.8038C39.8496 41.5424 39.993 41.3021 40.1792 41.0967C40.3653 40.8913 40.5904 40.725 40.8414 40.6075C41.0925 40.4899 41.3644 40.4235 41.6413 40.412L49.6413 39.9983V19.3086L38.4689 19.8603C36.8388 19.9569 35.2949 20.6254 34.1091 21.7481C32.9233 22.8708 32.1716 24.3758 31.9861 25.9982C31.9288 26.3863 31.9057 26.7786 31.9172 27.1707L32.9516 46.6879V46.8948L39.4344 170.688V170.895L39.8482 178.688C39.9 179.594 40.1306 180.482 40.5265 181.299C40.9225 182.116 41.4761 182.847 42.1554 183.449C42.8348 184.052 43.6265 184.514 44.4852 184.809C45.3438 185.105 46.2523 185.228 47.1585 185.171L52.6068 184.895C50.6881 182.484 49.6428 179.494 49.6413 176.412Z" fill="#969393"/>
<path d="M137.931 10.8984H62.0689C60.2398 10.8984 58.4857 11.625 57.1923 12.9184C55.899 14.2117 55.1724 15.9659 55.1724 17.795V176.416C55.1724 178.245 55.899 179.999 57.1923 181.292C58.4857 182.586 60.2398 183.312 62.0689 183.312H137.931C139.76 183.312 141.514 182.586 142.808 181.292C144.101 179.999 144.828 178.245 144.828 176.416V17.795C144.828 15.9659 144.101 14.2117 142.808 12.9184C141.514 11.625 139.76 10.8984 137.931 10.8984ZM99.9999 179.864C98.6359 179.864 97.3026 179.459 96.1684 178.702C95.0343 177.944 94.1503 176.867 93.6284 175.607C93.1064 174.346 92.9698 172.96 93.2359 171.622C93.502 170.284 94.1588 169.055 95.1233 168.091C96.0878 167.126 97.3167 166.469 98.6545 166.203C99.9923 165.937 101.379 166.074 102.639 166.596C103.899 167.118 104.976 168.002 105.734 169.136C106.492 170.27 106.896 171.603 106.896 172.967C106.896 174.796 106.17 176.551 104.877 177.844C103.583 179.137 101.829 179.864 99.9999 179.864ZM137.931 160.554C137.931 161.102 137.713 161.629 137.325 162.017C136.937 162.405 136.411 162.623 135.862 162.623H64.1379C63.8662 162.623 63.5971 162.569 63.3461 162.465C63.0951 162.361 62.867 162.209 62.6749 162.017C62.4828 161.824 62.3304 161.596 62.2264 161.345C62.1224 161.094 62.0689 160.825 62.0689 160.554V33.6571C62.0689 33.3854 62.1224 33.1163 62.2264 32.8653C62.3304 32.6143 62.4828 32.3862 62.6749 32.1941C62.867 32.002 63.0951 31.8496 63.3461 31.7456C63.5971 31.6416 63.8662 31.5881 64.1379 31.5881H135.862C136.411 31.5881 136.937 31.8061 137.325 32.1941C137.713 32.5821 137.931 33.1083 137.931 33.6571V160.554Z" fill="white"/>
</svg>
